<svg width="1728" height="632" viewBox="0 0 1728 632" fill="none" xmlns="http://www.w3.org/2000/svg">
<g clip-path="url(#clip0_1596_9845)">
<rect width="1728" height="632" fill="url(#paint0_radial_1596_9845)"/>
<path fill-rule="evenodd" clip-rule="evenodd" d="M1546.22 99.4059C1532.45 85.6289 1532.45 63.2921 1546.22 49.5152L1742.41 -146.667C1756.18 -160.444 1778.52 -160.444 1792.3 -146.667C1806.07 -132.89 1806.07 -110.554 1792.3 -96.7767L1596.11 99.4059C1582.34 113.183 1560 113.183 1546.22 99.4059ZM1440.01 111.2C1478.75 134.055 1511.19 166.427 1534.14 205.1L1542.3 196.935C1558.07 181.168 1583.63 181.168 1599.4 196.935C1615.16 212.701 1615.16 238.263 1599.4 254.03L1565.93 287.499C1569.44 304.748 1571.28 322.603 1571.28 340.887C1571.28 488.071 1451.96 607.387 1304.78 607.387C1288.64 607.387 1272.84 605.953 1257.49 603.205L1158 702.7C1133.56 727.133 1093.95 727.133 1069.52 702.7C1045.08 678.267 1045.08 638.654 1069.52 614.221L1136.33 547.41C1105.45 522.194 1080.33 490.191 1063.25 453.676L1016.92 500.008C1001.15 515.774 975.591 515.774 959.825 500.008C944.058 484.242 944.058 458.68 959.825 442.913L1039.22 363.514C1038.6 356.055 1038.28 348.508 1038.28 340.887C1038.28 206 1138.49 94.5191 1268.52 76.8326C1270.19 74.7625 1271.98 72.762 1273.9 70.8418L1416.73 -71.9938C1445.24 -100.502 1491.46 -100.502 1519.97 -71.9938C1548.48 -43.4855 1548.48 2.73549 1519.97 31.2438L1440.01 111.2ZM890.825 627.413C875.058 643.179 875.058 668.742 890.825 684.508C906.591 700.274 932.153 700.274 947.919 684.508L996.398 636.03C1012.16 620.263 1012.16 594.701 996.398 578.935C980.632 563.169 955.069 563.169 939.303 578.935L890.825 627.413ZM-210.037 207.818V426H-70.3707V387.967H-163.908V207.818H-210.037ZM-46.0809 426H3.35092L19.5359 376.249H98.3125L114.466 426H163.898L88.6847 207.818H29.2387L-46.0809 426ZM86.6211 340.24L59.814 257.676H58.1094L31.25 340.24H86.6211ZM190.158 207.818V426H236.288V355.261H275.066C291.827 355.261 306.103 352.172 317.893 345.993C329.754 339.814 338.809 331.185 345.059 320.105C351.309 309.026 354.434 296.241 354.434 281.753C354.434 267.264 351.345 254.48 345.166 243.401C339.058 232.25 330.18 223.55 318.532 217.3C306.884 210.979 292.786 207.818 276.238 207.818H190.158ZM236.288 318.294H267.609C276.487 318.294 283.802 316.767 289.555 313.713C295.379 310.588 299.711 306.291 302.552 300.822C305.464 295.283 306.92 288.926 306.92 281.753C306.92 274.509 305.464 268.188 302.552 262.79C299.711 257.321 295.379 253.095 289.555 250.112C283.731 247.058 276.345 245.531 267.396 245.531H236.288V318.294ZM376.087 207.818V245.851H442.884V426H488.481V245.851H555.277V207.818H376.087ZM761.794 377.634C770.814 360.943 775.324 340.702 775.324 316.909C775.324 293.116 770.814 272.875 761.794 256.185C752.845 239.494 740.629 226.781 725.146 218.045C709.734 209.239 692.405 204.835 673.157 204.835C653.768 204.835 636.368 209.239 620.956 218.045C605.544 226.781 593.363 239.494 584.414 256.185C575.466 272.875 570.991 293.116 570.991 316.909C570.991 340.631 575.466 360.837 584.414 377.527C593.363 394.217 605.544 406.966 620.956 415.773C636.368 424.58 653.768 428.983 673.157 428.983C692.405 428.983 709.734 424.615 725.146 415.879C740.629 407.072 752.845 394.324 761.794 377.634ZM721.63 277.918C726.247 288.5 728.555 301.497 728.555 316.909C728.555 332.321 726.247 345.318 721.63 355.901C717.085 366.483 710.657 374.509 702.348 379.977C694.038 385.446 684.308 388.18 673.157 388.18C662.007 388.18 652.277 385.446 643.967 379.977C635.657 374.509 629.194 366.483 624.578 355.901C620.032 345.318 617.76 332.321 617.76 316.909C617.76 301.497 620.032 288.5 624.578 277.918C629.194 267.335 635.657 259.31 643.967 253.841C652.277 248.372 662.007 245.638 673.157 245.638C684.308 245.638 694.038 248.372 702.348 253.841C710.657 259.31 717.085 267.335 721.63 277.918ZM895.574 207.818H809.494V426H855.624V355.261H894.402C911.163 355.261 925.439 352.172 937.229 345.993C949.09 339.814 958.145 331.185 964.395 320.105C970.645 309.026 973.77 296.241 973.77 281.753C973.77 267.264 970.68 254.48 964.501 243.401C958.394 232.25 949.516 223.55 937.868 217.3C926.22 210.979 912.122 207.818 895.574 207.818ZM855.624 318.294H886.945C895.823 318.294 903.138 316.767 908.891 313.713C914.715 310.588 919.047 306.291 921.888 300.822C924.8 295.283 926.256 288.926 926.256 281.753C926.256 274.509 924.8 268.188 921.888 262.79C919.047 257.321 914.715 253.095 908.891 250.112C903.067 247.058 895.68 245.531 886.732 245.531H855.624V318.294Z" fill="white" fill-opacity="0.2"/>
</g>
<defs>
<radialGradient id="paint0_radial_1596_9845" cx="0" cy="0" r="1" gradientUnits="userSpaceOnUse" gradientTransform="translate(1629.5 316) rotate(-168.452) scale(1980.59 5415.29)">
<stop stop-color="#3D3C68"/>
<stop offset="0.534941" stop-color="#28282F"/>
</radialGradient>
<clipPath id="clip0_1596_9845">
<rect width="1728" height="632" fill="white"/>
</clipPath>
</defs>
</svg>
