<svg width="132" height="70" viewBox="0 0 132 70" fill="none" xmlns="http://www.w3.org/2000/svg">
<path d="M36.7059 44.4692C35.7679 44.4692 34.7159 44.279 33.5497 43.8986C32.3836 43.5182 31.1794 43.0618 29.9373 42.5292C28.7204 41.9967 27.5289 41.4895 26.3628 41.0077C25.729 41.6924 25.0446 42.2249 24.3094 42.6053C23.5742 42.9857 22.7884 43.1759 21.9518 43.1759C21.0645 43.1759 20.304 42.973 19.6702 42.5673C19.0111 42.1869 18.5167 41.7177 18.1872 41.1598C17.8323 40.6019 17.6548 40.0947 17.6548 39.6383C17.6548 39.1311 17.883 38.6873 18.3393 38.3069C18.7956 37.9265 19.6068 37.7363 20.773 37.7363C21.4574 37.7363 22.2053 37.8124 23.0165 37.9646C23.8531 38.0914 24.7023 38.2689 25.5643 38.4971C26.1473 37.4827 26.6797 36.2909 27.1613 34.9215C27.6684 33.5521 28.1627 32.1193 28.6444 30.6231C29.126 29.1015 29.6077 27.618 30.0894 26.1725C28.8218 25.7414 27.8458 25.1455 27.1613 24.3847C26.4769 23.5986 26.1346 22.8124 26.1346 22.0263C26.1346 21.5191 26.2614 21.0246 26.5149 20.5428C26.7684 20.0356 27.136 19.6172 27.6177 19.2875C28.0993 18.9325 28.6697 18.7549 29.3288 18.7549C28.9993 19.1607 28.7838 19.6172 28.6824 20.1243C28.6063 20.6315 28.5683 21.0373 28.5683 21.3416C28.5683 22.1784 28.7584 22.8885 29.1387 23.4718C29.519 24.055 29.9879 24.5115 30.5457 24.8412C31.0273 23.3957 31.5343 22.0136 32.0667 20.6949C32.6244 19.3509 33.2328 18.1717 33.892 17.1573C34.5764 16.1176 35.3243 15.2934 36.1355 14.6848C36.9721 14.0762 37.9101 13.7718 38.9495 13.7718C39.5325 13.7718 40.141 13.8986 40.7747 14.1522C41.4338 14.3805 41.9916 14.7862 42.4479 15.3695C42.9295 15.9527 43.1704 16.7896 43.1704 17.88C43.1704 18.7423 42.9802 19.6679 42.6 20.6569C42.2451 21.6459 41.6747 22.5969 40.8888 23.5098C40.1029 24.3974 39.0889 25.1455 37.8467 25.7541C36.6299 26.3374 35.1468 26.6544 33.3976 26.7051C33.3469 26.7051 33.2835 26.7051 33.2075 26.7051C33.1568 26.7051 33.1061 26.7051 33.0554 26.7051C32.5737 28.1759 32.0667 29.6594 31.5343 31.1556C31.002 32.6518 30.4316 34.0846 29.8232 35.454C29.2148 36.8234 28.5556 38.0406 27.8458 39.1057C28.8345 39.3847 29.9246 39.7017 31.1161 40.0567C32.3329 40.4117 33.5371 40.716 34.7285 40.9696C35.9454 41.1979 37.0101 41.312 37.9227 41.312C38.5312 41.312 39.0889 41.2486 39.5959 41.1218C40.1283 40.9696 40.686 40.7541 41.2691 40.4751C40.762 41.8953 40.1283 42.9096 39.3677 43.5182C38.6326 44.1522 37.7453 44.4692 36.7059 44.4692ZM21.5715 41.7685C22.2306 41.7685 22.763 41.6163 23.1686 41.312C23.5742 41.033 23.9798 40.678 24.3854 40.2469C23.5996 39.968 22.8644 39.7397 22.1799 39.5622C21.4955 39.3593 20.8997 39.2579 20.3927 39.2579C19.911 39.2579 19.5688 39.3466 19.366 39.5242C19.1378 39.7017 19.0238 39.9172 19.0238 40.1708C19.0238 40.5766 19.2773 40.9443 19.7843 41.2739C20.2913 41.6036 20.8871 41.7685 21.5715 41.7685ZM33.4737 25.4498C34.5891 25.3737 35.5778 25.0187 36.4397 24.3847C37.3016 23.7507 38.0368 22.9899 38.6452 22.1024C39.2537 21.2148 39.71 20.3145 40.0142 19.4016C40.3438 18.4633 40.5085 17.6518 40.5085 16.9671C40.5085 16.3078 40.3818 15.864 40.1283 15.6357C39.8748 15.3822 39.5832 15.2554 39.2537 15.2554C38.5185 15.2554 37.8213 15.7245 37.1622 16.6628C36.5031 17.6011 35.8693 18.8437 35.2609 20.3906C34.6778 21.9122 34.0821 23.5986 33.4737 25.4498Z" fill="white"/>
<path d="M45.4273 42.9477C44.5907 42.9477 43.8682 42.6687 43.2598 42.1108C42.626 41.5529 42.3091 40.716 42.3091 39.6002C42.3091 38.7127 42.5119 37.749 42.9176 36.7093C43.3232 35.6696 43.8809 34.6425 44.5907 33.6281C45.3005 32.6138 46.1118 31.7008 47.0244 30.8893C47.937 30.0525 48.913 29.3805 49.9524 28.8733C50.9918 28.3661 52.0312 28.1125 53.0705 28.1125C54.1606 28.1125 55.0859 28.3915 55.8464 28.9494C56.607 29.5073 56.9872 30.2427 56.9872 31.1556C56.9872 31.8403 56.7464 32.3348 56.2647 32.6391C55.7831 32.9434 55.2127 33.0322 54.5536 32.9054C54.6043 32.6772 54.6423 32.4489 54.6676 32.2207C54.7183 31.9925 54.7437 31.7515 54.7437 31.498C54.7437 30.9908 54.6423 30.5343 54.4395 30.1286C54.2367 29.7228 53.8057 29.5199 53.1466 29.5199C52.4368 29.5199 51.7143 29.7608 50.9791 30.2427C50.2439 30.7245 49.5341 31.3585 48.8496 32.1446C48.1905 32.9054 47.5948 33.7549 47.0624 34.6932C46.53 35.6062 46.1118 36.5064 45.8075 37.394C45.5033 38.2816 45.3512 39.0804 45.3512 39.7904C45.3512 40.6019 45.6428 41.0077 46.2258 41.0077C46.8089 41.0077 47.4553 40.7287 48.1652 40.1708C48.875 39.5876 49.5848 38.8648 50.2946 38.0026C51.0298 37.1404 51.7269 36.2655 52.3861 35.3779C53.0452 34.465 53.6156 33.6915 54.0972 33.0576C54.1733 32.9308 54.2747 32.8674 54.4015 32.8674C54.5029 32.8927 54.693 32.9561 54.9718 33.0576C55.2761 33.1336 55.5549 33.2604 55.8084 33.4379C56.0619 33.6155 56.1887 33.8437 56.1887 34.1226C56.1887 34.3762 56.0746 34.7059 55.8464 35.1117C55.6436 35.492 55.3901 35.9232 55.0859 36.405C54.8071 36.8614 54.5536 37.3306 54.3254 37.8124C54.1226 38.2689 54.0212 38.7127 54.0212 39.1438C54.0212 39.4734 54.1099 39.7904 54.2874 40.0948C54.4648 40.3737 54.7564 40.5132 55.162 40.5132C55.7704 40.5132 56.6197 40.0694 57.7097 39.1818C58.8252 38.2689 59.9533 36.7346 61.0941 34.5791L61.8165 35.3018C61.2081 36.6712 60.473 37.8885 59.611 38.9536C58.7745 39.9933 57.8872 40.8048 56.9492 41.3881C56.0112 41.9967 55.0606 42.301 54.0972 42.301C53.0579 42.301 52.2847 41.9713 51.7777 41.312C51.2706 40.6527 50.9918 39.9426 50.9411 39.1818C50.9411 39.1311 50.9411 39.0931 50.9411 39.0677C50.9411 39.0423 50.9411 39.017 50.9411 38.9916C49.927 40.2089 48.9891 41.1725 48.1271 41.8826C47.2906 42.5926 46.3906 42.9477 45.4273 42.9477Z" fill="white"/>
<path d="M58.0647 51.8107C57.8619 51.8107 57.6465 51.7473 57.4183 51.6205C57.1901 51.5191 57 51.3923 56.8479 51.2401C56.6704 51.088 56.569 50.9612 56.5437 50.8597C57.1775 49.0085 57.7225 47.3982 58.1788 46.0288C58.6098 44.6848 58.9774 43.4041 59.2816 42.1869C59.5858 40.995 59.8646 39.7524 60.1182 38.4591C60.3463 37.1404 60.5745 35.6442 60.8026 33.9705C61.0561 32.2714 61.335 30.23 61.6392 27.8462C61.6899 27.5419 61.7532 27.3264 61.8293 27.1996C61.9053 27.0474 62.1462 26.9713 62.5518 26.9713C63.3377 26.9713 63.9081 27.1869 64.263 27.618C64.6179 28.0238 64.7954 28.4802 64.7954 28.9874C64.7954 29.241 64.7447 29.6848 64.6432 30.3188C64.5672 30.9527 64.4404 31.7008 64.263 32.563C64.7446 31.8276 65.2897 31.1302 65.8981 30.4709C66.5319 29.8116 67.229 29.279 67.9896 28.8733C68.7501 28.4422 69.574 28.2266 70.4613 28.2266C71.7035 28.2266 72.7302 28.6451 73.5414 29.4819C74.3526 30.3188 74.7582 31.4219 74.7582 32.7913C74.7582 33.7803 74.5301 34.8327 74.0738 35.9485C73.6428 37.039 73.0217 38.0787 72.2105 39.0677C71.3992 40.0313 70.4232 40.8175 69.2824 41.4261C68.1417 42.0601 66.8868 42.3771 65.5179 42.3771C64.7066 42.3771 64.0602 42.2756 63.5785 42.0728C63.0968 41.8699 62.856 41.6417 62.856 41.3881C62.856 41.2106 62.9447 41.1091 63.1222 41.0838C63.325 41.033 63.5405 41.0077 63.7686 41.0077C64.9601 40.9823 66.0376 40.7287 67.0009 40.2469C67.9896 39.7651 68.8388 39.1438 69.5486 38.383C70.2585 37.5969 70.8035 36.76 71.1838 35.8724C71.564 34.9849 71.7542 34.11 71.7542 33.2477C71.7542 32.487 71.5767 31.8276 71.2218 31.2697C70.8922 30.7118 70.3599 30.4329 69.6247 30.4329C68.9909 30.4329 68.3445 30.6357 67.6853 31.0415C67.0516 31.4472 66.4558 31.9671 65.8981 32.6011C65.3404 33.2097 64.8461 33.8564 64.4151 34.5411C63.9841 35.2004 63.6546 35.7837 63.4264 36.2909C62.9447 37.9646 62.5011 39.6256 62.0955 41.2739C61.7152 42.9477 61.3477 44.4946 60.9928 45.9147C60.6378 47.3348 60.2829 48.5394 59.928 49.5284C59.5478 50.5174 59.1421 51.1894 58.7112 51.5444C58.5084 51.722 58.2929 51.8107 58.0647 51.8107Z" fill="white"/>
<path d="M79.3626 42.9096C78.2472 42.9096 77.3473 42.5799 76.6628 41.9206C75.9783 41.2613 75.6361 40.2596 75.6361 38.9155C75.6361 37.8758 75.8262 36.5825 76.2065 35.0356C76.6121 33.4887 77.1191 31.891 77.7275 30.2427C77.5501 30.192 77.3346 30.1539 77.0811 30.1286C76.8529 30.0778 76.6248 30.0018 76.3966 29.9003V28.7211C76.8022 28.7718 77.1318 28.8099 77.3853 28.8352C77.6642 28.8606 77.943 28.886 78.2219 28.9113C78.7542 27.5673 79.3246 26.274 79.9331 25.0314C80.5668 23.7634 81.1879 22.6349 81.7963 21.6459C82.4301 20.6569 83.0258 19.8834 83.5835 19.3255C84.1413 18.7423 84.6356 18.4506 85.0666 18.4506C85.3201 18.4506 85.5609 18.5521 85.7891 18.7549C86.0172 18.9325 86.1313 19.1987 86.1313 19.5538C86.1313 20.0609 85.8651 20.7837 85.3327 21.722C84.8257 22.6603 84.192 23.7634 83.4314 25.0314C82.6709 26.274 81.9357 27.6053 81.2259 29.0254C81.4287 29.0254 81.6315 29.0254 81.8344 29.0254C82.0372 29.0254 82.2273 29.0254 82.4047 29.0254C83.5202 29.0254 84.5215 29.0128 85.4088 28.9874C86.3214 28.9367 87.2467 28.8606 88.1847 28.7592V30.0144C86.7904 30.1412 85.5102 30.2427 84.3441 30.3188C83.1779 30.3948 82.0625 30.4456 80.9978 30.4709C80.9217 30.4709 80.8457 30.4709 80.7696 30.4709C80.6936 30.4709 80.6175 30.4709 80.5415 30.4709C80.0091 31.7135 79.5401 32.9942 79.1345 34.3128C78.7542 35.6062 78.5641 36.8741 78.5641 38.1167C78.5641 39.1565 78.7289 39.8919 79.0584 40.323C79.388 40.7541 79.9077 40.9696 80.6175 40.9696C81.8851 40.9696 83.1779 40.3991 84.4962 39.2579C85.8398 38.0914 87.0059 36.5191 87.9946 34.5411L88.5269 34.9215C87.8678 36.4177 87.0439 37.7744 86.0553 38.9916C85.0919 40.2089 84.0399 41.1598 82.8991 41.8445C81.7583 42.5546 80.5795 42.9096 79.3626 42.9096Z" fill="white"/>
<path d="M89.3668 42.3771C88.226 42.3771 87.4401 41.9967 87.0092 41.2359C86.6036 40.5005 86.4008 39.689 86.4008 38.8014C86.4008 37.9899 86.5275 37.1658 86.781 36.3289C87.0345 35.4667 87.3768 34.6679 87.8077 33.9324C88.264 33.197 88.7584 32.6138 89.2907 32.1827C89.8485 31.7262 90.4062 31.498 90.9639 31.498C91.1413 31.498 91.3442 31.536 91.5723 31.6121C91.8258 31.6628 92.0033 31.7515 92.1047 31.8783C91.8005 32.2587 91.4836 32.7279 91.154 33.2858C90.8498 33.8437 90.5583 34.4396 90.2794 35.0736C90.0259 35.6822 89.8231 36.3035 89.671 36.9375C89.5189 37.5715 89.4428 38.1548 89.4428 38.6873C89.4428 39.1945 89.5316 39.6129 89.709 39.9426C89.9118 40.2723 90.2541 40.4371 90.7357 40.4371C91.2174 40.4371 91.7878 40.1708 92.4469 39.6383C93.1314 39.0804 93.7778 38.4464 94.3863 37.7363C93.575 37.0009 92.992 36.2021 92.637 35.3399C92.2821 34.4523 92.1047 33.3872 92.1047 32.1446C92.1047 31.6121 92.2314 31.0035 92.4849 30.3188C92.7638 29.6341 93.1948 29.0381 93.7778 28.5309C94.3863 28.0237 95.1975 27.7702 96.2115 27.7702C97.3016 27.7702 98.0621 28.0745 98.4931 28.6831C98.9494 29.2917 99.1776 30.0144 99.1776 30.8513C99.1776 31.7896 98.924 32.842 98.417 34.0085C97.9353 35.1751 97.3523 36.2782 96.6678 37.3179C96.972 37.4701 97.3269 37.5461 97.7326 37.5461C98.1128 37.5461 98.5691 37.4574 99.1015 37.2799C99.6339 37.1024 100.154 36.8107 100.661 36.405C101.168 35.9739 101.573 35.4033 101.877 34.6932L102.562 35.1877C102.004 36.4811 101.256 37.432 100.318 38.0406C99.4057 38.6239 98.5058 38.9155 97.6185 38.9155C97.2889 38.9155 96.9594 38.8902 96.6298 38.8395C96.3002 38.7634 95.996 38.6746 95.7172 38.5732C94.8552 39.5876 93.8666 40.4751 92.7511 41.2359C91.6357 41.9967 90.5076 42.3771 89.3668 42.3771ZM95.3749 36.5191C95.9833 35.6315 96.503 34.6805 96.934 33.6662C97.365 32.6518 97.5804 31.7135 97.5804 30.8513C97.5804 30.268 97.4917 29.8496 97.3143 29.596C97.1368 29.3171 96.8706 29.1776 96.5157 29.1776C96.034 29.1776 95.5397 29.5199 95.0327 30.2046C94.5257 30.8893 94.2722 31.7516 94.2722 32.7913C94.2722 33.3238 94.3609 33.9705 94.5384 34.7313C94.7412 35.492 95.02 36.088 95.3749 36.5191Z" fill="white"/>
<path d="M98.876 51.8107C98.6732 51.8107 98.4577 51.7473 98.2296 51.6205C98.0014 51.5191 97.8113 51.3923 97.6592 51.2401C97.4817 51.088 97.3803 50.9612 97.355 50.8597C97.9887 49.0085 98.5338 47.3982 98.9901 46.0288C99.421 44.6848 99.7886 43.4041 100.093 42.1869C100.397 40.995 100.676 39.7524 100.929 38.4591C101.158 37.1404 101.386 35.6442 101.614 33.9705C101.867 32.2714 102.146 30.23 102.45 27.8462C102.501 27.5419 102.565 27.3264 102.641 27.1996C102.717 27.0474 102.957 26.9713 103.363 26.9713C104.149 26.9713 104.719 27.1869 105.074 27.618C105.429 28.0238 105.607 28.4802 105.607 28.9874C105.607 29.241 105.556 29.6848 105.455 30.3188C105.378 30.9527 105.252 31.7008 105.074 32.563C105.556 31.8276 106.101 31.1302 106.709 30.4709C107.343 29.8116 108.04 29.279 108.801 28.8733C109.561 28.4422 110.385 28.2266 111.273 28.2266C112.515 28.2266 113.541 28.6451 114.353 29.4819C115.164 30.3188 115.569 31.4219 115.569 32.7913C115.569 33.7803 115.341 34.8327 114.885 35.9485C114.454 37.039 113.833 38.0787 113.022 39.0677C112.211 40.0313 111.235 40.8175 110.094 41.4261C108.953 42.0601 107.698 42.3771 106.329 42.3771C105.518 42.3771 104.871 42.2756 104.39 42.0728C103.908 41.8699 103.667 41.6417 103.667 41.3881C103.667 41.2106 103.756 41.1091 103.933 41.0838C104.136 41.033 104.352 41.0077 104.58 41.0077C105.771 40.9823 106.849 40.7287 107.812 40.2469C108.801 39.7651 109.65 39.1438 110.36 38.383C111.07 37.5969 111.615 36.76 111.995 35.8724C112.375 34.9849 112.565 34.11 112.565 33.2477C112.565 32.487 112.388 31.8276 112.033 31.2697C111.704 30.7118 111.171 30.4329 110.436 30.4329C109.802 30.4329 109.156 30.6357 108.497 31.0415C107.863 31.4472 107.267 31.9671 106.709 32.6011C106.152 33.2097 105.657 33.8564 105.226 34.5411C104.795 35.2004 104.466 35.7837 104.238 36.2909C103.756 37.9646 103.312 39.6256 102.907 41.2739C102.527 42.9477 102.159 44.4946 101.804 45.9147C101.449 47.3348 101.094 48.5394 100.739 49.5284C100.359 50.5174 99.9534 51.1894 99.5225 51.5444C99.3197 51.722 99.1042 51.8107 98.876 51.8107Z" fill="white"/>
<path d="M111.273 28.2266C112.515 28.2266 113.541 28.6451 114.353 29.4819C77.0377 -10.7678 -1.61957 -10.6086 0.0254049 34.9215C1.02332 62.542 46.2833 90.0215 131.452 49.5284C82.8703 71.9803 12.2865 72.5766 9.88676 32.9054C7.84509 -0.846632 75.699 -1.08789 111.273 28.2266Z" fill="white"/>
</svg>
